<svg width="500" height="500" viewBox="0 0 500 500" fill="none" xmlns="http://www.w3.org/2000/svg">
<mask id="mask0_600_6583" style="mask-type:alpha" maskUnits="userSpaceOnUse" x="0" y="0" width="500" height="500">
<circle cx="250" cy="250" r="250" fill="#D9D9D9"/>
</mask>
<g mask="url(#mask0_600_6583)">
<circle cx="138.5" cy="-0.5" r="5.5" stroke="#44C1BA" stroke-width="4"/>
<circle cx="167.5" cy="-0.5" r="5.5" stroke="#44C1BA" stroke-width="4"/>
<circle cx="196.5" cy="-0.5" r="5.5" stroke="#44C1BA" stroke-width="4"/>
<circle cx="225.5" cy="-0.5" r="5.5" stroke="#44C1BA" stroke-width="4"/>
<circle cx="254.5" cy="-0.5" r="5.5" stroke="#44C1BA" stroke-width="4"/>
<circle cx="283.5" cy="-0.5" r="5.5" stroke="#44C1BA" stroke-width="4"/>
<circle cx="312.5" cy="-0.5" r="5.5" stroke="#44C1BA" stroke-width="4"/>
<circle cx="138.5" cy="34.5" r="5.5" stroke="#44C1BA" stroke-width="4"/>
<circle cx="167.5" cy="34.5" r="5.5" stroke="#44C1BA" stroke-width="4"/>
<circle cx="196.5" cy="34.5" r="5.5" stroke="#44C1BA" stroke-width="4"/>
<circle cx="225.5" cy="34.5" r="5.5" stroke="#44C1BA" stroke-width="4"/>
<circle cx="254.5" cy="34.5" r="5.5" stroke="#44C1BA" stroke-width="4"/>
<circle cx="283.5" cy="34.5" r="5.5" stroke="#44C1BA" stroke-width="4"/>
<circle cx="312.5" cy="34.5" r="5.5" stroke="#44C1BA" stroke-width="4"/>
<circle cx="138.5" cy="69.5" r="5.5" stroke="#44C1BA" stroke-width="4"/>
<circle cx="167.5" cy="69.5" r="5.5" stroke="#44C1BA" stroke-width="4"/>
<circle cx="196.5" cy="69.5" r="5.5" stroke="#44C1BA" stroke-width="4"/>
<circle cx="225.5" cy="69.5" r="5.5" stroke="#44C1BA" stroke-width="4"/>
<circle cx="254.5" cy="69.5" r="5.5" stroke="#44C1BA" stroke-width="4"/>
<circle cx="283.5" cy="69.5" r="5.5" stroke="#44C1BA" stroke-width="4"/>
<circle cx="312.5" cy="69.5" r="5.5" stroke="#44C1BA" stroke-width="4"/>
<circle cx="138.5" cy="104.5" r="5.5" stroke="#44C1BA" stroke-width="4"/>
<circle cx="167.5" cy="104.5" r="5.5" stroke="#44C1BA" stroke-width="4"/>
<circle cx="196.5" cy="104.5" r="5.5" stroke="#44C1BA" stroke-width="4"/>
<circle cx="225.5" cy="104.5" r="5.5" stroke="#44C1BA" stroke-width="4"/>
<circle cx="254.5" cy="104.5" r="5.5" stroke="#44C1BA" stroke-width="4"/>
<circle cx="283.5" cy="104.5" r="5.5" stroke="#44C1BA" stroke-width="4"/>
<circle cx="312.5" cy="104.5" r="5.5" stroke="#44C1BA" stroke-width="4"/>
<circle cx="138.5" cy="139.5" r="5.5" stroke="#44C1BA" stroke-width="4"/>
<circle cx="167.5" cy="139.5" r="5.5" stroke="#44C1BA" stroke-width="4"/>
<circle cx="196.5" cy="139.5" r="5.5" stroke="#44C1BA" stroke-width="4"/>
<circle cx="225.5" cy="139.5" r="5.5" stroke="#44C1BA" stroke-width="4"/>
<circle cx="254.5" cy="139.5" r="5.5" stroke="#44C1BA" stroke-width="4"/>
<circle cx="283.5" cy="139.5" r="5.5" stroke="#44C1BA" stroke-width="4"/>
<circle cx="312.5" cy="139.5" r="5.5" stroke="#44C1BA" stroke-width="4"/>
<circle cx="138.5" cy="174.5" r="5.5" stroke="#44C1BA" stroke-width="4"/>
<circle cx="167.5" cy="174.5" r="5.5" stroke="#44C1BA" stroke-width="4"/>
<circle cx="196.5" cy="174.5" r="5.5" stroke="#44C1BA" stroke-width="4"/>
<circle cx="225.5" cy="174.5" r="5.5" stroke="#44C1BA" stroke-width="4"/>
<circle cx="254.5" cy="174.5" r="5.5" stroke="#44C1BA" stroke-width="4"/>
<circle cx="283.5" cy="174.5" r="5.5" stroke="#44C1BA" stroke-width="4"/>
<circle cx="312.5" cy="174.5" r="5.5" stroke="#44C1BA" stroke-width="4"/>
<circle cx="138.5" cy="209.5" r="5.5" stroke="#44C1BA" stroke-width="4"/>
<circle cx="167.5" cy="209.5" r="5.5" stroke="#44C1BA" stroke-width="4"/>
<circle cx="196.5" cy="209.5" r="5.5" stroke="#44C1BA" stroke-width="4"/>
<circle cx="225.5" cy="209.5" r="5.5" stroke="#44C1BA" stroke-width="4"/>
<circle cx="254.5" cy="209.5" r="5.5" stroke="#44C1BA" stroke-width="4"/>
<circle cx="283.5" cy="209.5" r="5.5" stroke="#44C1BA" stroke-width="4"/>
<circle cx="312.5" cy="209.5" r="5.5" stroke="#44C1BA" stroke-width="4"/>
<circle cx="138.5" cy="244.5" r="5.5" stroke="#44C1BA" stroke-width="4"/>
<circle cx="167.5" cy="244.5" r="5.5" stroke="#44C1BA" stroke-width="4"/>
<circle cx="196.5" cy="244.5" r="5.5" stroke="#44C1BA" stroke-width="4"/>
<circle cx="225.5" cy="244.5" r="5.5" stroke="#44C1BA" stroke-width="4"/>
<circle cx="254.5" cy="244.5" r="5.5" stroke="#44C1BA" stroke-width="4"/>
<circle cx="283.5" cy="244.5" r="5.5" stroke="#44C1BA" stroke-width="4"/>
<circle cx="312.5" cy="244.5" r="5.5" stroke="#44C1BA" stroke-width="4"/>
<circle cx="138.5" cy="279.5" r="5.5" stroke="#44C1BA" stroke-width="4"/>
<circle cx="167.5" cy="279.5" r="5.5" stroke="#44C1BA" stroke-width="4"/>
<circle cx="196.5" cy="279.5" r="5.5" stroke="#44C1BA" stroke-width="4"/>
<circle cx="225.5" cy="279.5" r="5.5" stroke="#44C1BA" stroke-width="4"/>
<circle cx="254.5" cy="279.5" r="5.5" stroke="#44C1BA" stroke-width="4"/>
<circle cx="283.5" cy="279.5" r="5.5" stroke="#44C1BA" stroke-width="4"/>
<circle cx="312.5" cy="279.5" r="5.5" stroke="#44C1BA" stroke-width="4"/>
<circle cx="138.5" cy="314.5" r="5.5" stroke="#44C1BA" stroke-width="4"/>
<circle cx="167.5" cy="314.5" r="5.5" stroke="#44C1BA" stroke-width="4"/>
<circle cx="196.5" cy="314.5" r="5.5" stroke="#44C1BA" stroke-width="4"/>
<circle cx="225.5" cy="314.5" r="5.5" stroke="#44C1BA" stroke-width="4"/>
<circle cx="254.5" cy="314.5" r="5.5" stroke="#44C1BA" stroke-width="4"/>
<circle cx="283.5" cy="314.5" r="5.5" stroke="#44C1BA" stroke-width="4"/>
<circle cx="312.5" cy="314.5" r="5.5" stroke="#44C1BA" stroke-width="4"/>
<circle cx="138.5" cy="349.5" r="5.5" stroke="#44C1BA" stroke-width="4"/>
<circle cx="167.5" cy="349.5" r="5.5" stroke="#44C1BA" stroke-width="4"/>
<circle cx="196.5" cy="349.5" r="5.5" stroke="#44C1BA" stroke-width="4"/>
<circle cx="225.5" cy="349.5" r="5.5" stroke="#44C1BA" stroke-width="4"/>
<circle cx="254.5" cy="349.5" r="5.5" stroke="#44C1BA" stroke-width="4"/>
<circle cx="283.5" cy="349.5" r="5.5" stroke="#44C1BA" stroke-width="4"/>
<circle cx="312.5" cy="349.5" r="5.5" stroke="#44C1BA" stroke-width="4"/>
<circle cx="138.5" cy="384.5" r="5.5" stroke="#44C1BA" stroke-width="4"/>
<circle cx="167.5" cy="384.5" r="5.5" stroke="#44C1BA" stroke-width="4"/>
<circle cx="196.5" cy="384.5" r="5.5" stroke="#44C1BA" stroke-width="4"/>
<circle cx="225.5" cy="384.5" r="5.5" stroke="#44C1BA" stroke-width="4"/>
<circle cx="254.5" cy="384.5" r="5.5" stroke="#44C1BA" stroke-width="4"/>
<circle cx="283.5" cy="384.5" r="5.5" stroke="#44C1BA" stroke-width="4"/>
<circle cx="312.5" cy="384.5" r="5.5" stroke="#44C1BA" stroke-width="4"/>
<circle cx="138.5" cy="419.5" r="5.5" stroke="#44C1BA" stroke-width="4"/>
<circle cx="167.5" cy="419.5" r="5.5" stroke="#44C1BA" stroke-width="4"/>
<circle cx="196.5" cy="419.5" r="5.5" stroke="#44C1BA" stroke-width="4"/>
<circle cx="225.5" cy="419.5" r="5.5" stroke="#44C1BA" stroke-width="4"/>
<circle cx="254.5" cy="419.5" r="5.5" stroke="#44C1BA" stroke-width="4"/>
<circle cx="283.5" cy="419.5" r="5.5" stroke="#44C1BA" stroke-width="4"/>
<circle cx="312.5" cy="419.5" r="5.5" stroke="#44C1BA" stroke-width="4"/>
<circle cx="138.5" cy="454.5" r="5.5" stroke="#44C1BA" stroke-width="4"/>
<circle cx="167.5" cy="454.5" r="5.5" stroke="#44C1BA" stroke-width="4"/>
<circle cx="196.5" cy="454.5" r="5.5" stroke="#44C1BA" stroke-width="4"/>
<circle cx="225.5" cy="454.5" r="5.5" stroke="#44C1BA" stroke-width="4"/>
<circle cx="254.5" cy="454.5" r="5.5" stroke="#44C1BA" stroke-width="4"/>
<circle cx="283.5" cy="454.5" r="5.5" stroke="#44C1BA" stroke-width="4"/>
<circle cx="312.5" cy="454.5" r="5.5" stroke="#44C1BA" stroke-width="4"/>
<circle cx="138.5" cy="489.5" r="5.5" stroke="#44C1BA" stroke-width="4"/>
<circle cx="167.5" cy="489.5" r="5.5" stroke="#44C1BA" stroke-width="4"/>
<circle cx="196.5" cy="489.5" r="5.5" stroke="#44C1BA" stroke-width="4"/>
<circle cx="225.5" cy="489.5" r="5.5" stroke="#44C1BA" stroke-width="4"/>
<circle cx="254.5" cy="489.5" r="5.5" stroke="#44C1BA" stroke-width="4"/>
<circle cx="283.5" cy="489.5" r="5.5" stroke="#44C1BA" stroke-width="4"/>
<circle cx="312.5" cy="489.5" r="5.5" stroke="#44C1BA" stroke-width="4"/>
<circle cx="-6.5" cy="-0.5" r="5.5" stroke="#44C1BA" stroke-width="4"/>
<circle cx="22.5" cy="-0.5" r="5.5" stroke="#44C1BA" stroke-width="4"/>
<circle cx="51.5" cy="-0.5" r="5.5" stroke="#44C1BA" stroke-width="4"/>
<circle cx="80.5" cy="-0.5" r="5.5" stroke="#44C1BA" stroke-width="4"/>
<circle cx="109.5" cy="-0.5" r="5.5" stroke="#44C1BA" stroke-width="4"/>
<circle cx="-6.5" cy="34.5" r="5.5" stroke="#44C1BA" stroke-width="4"/>
<circle cx="22.5" cy="34.5" r="5.5" stroke="#44C1BA" stroke-width="4"/>
<circle cx="51.5" cy="34.5" r="5.5" stroke="#44C1BA" stroke-width="4"/>
<circle cx="80.5" cy="34.5" r="5.5" stroke="#44C1BA" stroke-width="4"/>
<circle cx="109.5" cy="34.5" r="5.5" stroke="#44C1BA" stroke-width="4"/>
<circle cx="-6.5" cy="69.5" r="5.5" stroke="#44C1BA" stroke-width="4"/>
<circle cx="22.5" cy="69.5" r="5.5" stroke="#44C1BA" stroke-width="4"/>
<circle cx="51.5" cy="69.5" r="5.5" stroke="#44C1BA" stroke-width="4"/>
<circle cx="80.5" cy="69.5" r="5.5" stroke="#44C1BA" stroke-width="4"/>
<circle cx="109.5" cy="69.5" r="5.5" stroke="#44C1BA" stroke-width="4"/>
<circle cx="-6.5" cy="104.5" r="5.5" stroke="#44C1BA" stroke-width="4"/>
<circle cx="22.5" cy="104.5" r="5.5" stroke="#44C1BA" stroke-width="4"/>
<circle cx="51.5" cy="104.5" r="5.5" stroke="#44C1BA" stroke-width="4"/>
<circle cx="80.5" cy="104.5" r="5.5" stroke="#44C1BA" stroke-width="4"/>
<circle cx="109.5" cy="104.5" r="5.5" stroke="#44C1BA" stroke-width="4"/>
<circle cx="-6.5" cy="139.5" r="5.5" stroke="#44C1BA" stroke-width="4"/>
<circle cx="22.5" cy="139.5" r="5.5" stroke="#44C1BA" stroke-width="4"/>
<circle cx="51.5" cy="139.5" r="5.5" stroke="#44C1BA" stroke-width="4"/>
<circle cx="80.5" cy="139.5" r="5.5" stroke="#44C1BA" stroke-width="4"/>
<circle cx="109.5" cy="139.5" r="5.5" stroke="#44C1BA" stroke-width="4"/>
<circle cx="-6.5" cy="174.5" r="5.5" stroke="#44C1BA" stroke-width="4"/>
<circle cx="22.5" cy="174.5" r="5.5" stroke="#44C1BA" stroke-width="4"/>
<circle cx="51.5" cy="174.5" r="5.5" stroke="#44C1BA" stroke-width="4"/>
<circle cx="80.5" cy="174.5" r="5.5" stroke="#44C1BA" stroke-width="4"/>
<circle cx="109.5" cy="174.5" r="5.5" stroke="#44C1BA" stroke-width="4"/>
<circle cx="-6.5" cy="209.5" r="5.5" stroke="#44C1BA" stroke-width="4"/>
<circle cx="22.5" cy="209.5" r="5.5" stroke="#44C1BA" stroke-width="4"/>
<circle cx="51.5" cy="209.5" r="5.5" stroke="#44C1BA" stroke-width="4"/>
<circle cx="80.5" cy="209.5" r="5.5" stroke="#44C1BA" stroke-width="4"/>
<circle cx="109.5" cy="209.5" r="5.5" stroke="#44C1BA" stroke-width="4"/>
<circle cx="-6.5" cy="244.5" r="5.5" stroke="#44C1BA" stroke-width="4"/>
<circle cx="22.5" cy="244.5" r="5.5" stroke="#44C1BA" stroke-width="4"/>
<circle cx="51.5" cy="244.5" r="5.5" stroke="#44C1BA" stroke-width="4"/>
<circle cx="80.5" cy="244.5" r="5.5" stroke="#44C1BA" stroke-width="4"/>
<circle cx="109.5" cy="244.5" r="5.5" stroke="#44C1BA" stroke-width="4"/>
<circle cx="-6.5" cy="279.5" r="5.5" stroke="#44C1BA" stroke-width="4"/>
<circle cx="22.5" cy="279.5" r="5.5" stroke="#44C1BA" stroke-width="4"/>
<circle cx="51.5" cy="279.5" r="5.5" stroke="#44C1BA" stroke-width="4"/>
<circle cx="80.5" cy="279.5" r="5.5" stroke="#44C1BA" stroke-width="4"/>
<circle cx="109.5" cy="279.5" r="5.5" stroke="#44C1BA" stroke-width="4"/>
<circle cx="-6.5" cy="314.5" r="5.5" stroke="#44C1BA" stroke-width="4"/>
<circle cx="22.5" cy="314.5" r="5.5" stroke="#44C1BA" stroke-width="4"/>
<circle cx="51.5" cy="314.5" r="5.5" stroke="#44C1BA" stroke-width="4"/>
<circle cx="80.5" cy="314.5" r="5.5" stroke="#44C1BA" stroke-width="4"/>
<circle cx="109.5" cy="314.5" r="5.5" stroke="#44C1BA" stroke-width="4"/>
<circle cx="-6.5" cy="349.5" r="5.5" stroke="#44C1BA" stroke-width="4"/>
<circle cx="22.5" cy="349.5" r="5.5" stroke="#44C1BA" stroke-width="4"/>
<circle cx="51.5" cy="349.5" r="5.5" stroke="#44C1BA" stroke-width="4"/>
<circle cx="80.5" cy="349.5" r="5.5" stroke="#44C1BA" stroke-width="4"/>
<circle cx="109.5" cy="349.5" r="5.5" stroke="#44C1BA" stroke-width="4"/>
<circle cx="-6.5" cy="384.5" r="5.5" stroke="#44C1BA" stroke-width="4"/>
<circle cx="22.5" cy="384.5" r="5.5" stroke="#44C1BA" stroke-width="4"/>
<circle cx="51.5" cy="384.5" r="5.5" stroke="#44C1BA" stroke-width="4"/>
<circle cx="80.5" cy="384.5" r="5.5" stroke="#44C1BA" stroke-width="4"/>
<circle cx="109.5" cy="384.5" r="5.5" stroke="#44C1BA" stroke-width="4"/>
<circle cx="-6.5" cy="419.5" r="5.5" stroke="#44C1BA" stroke-width="4"/>
<circle cx="22.5" cy="419.5" r="5.5" stroke="#44C1BA" stroke-width="4"/>
<circle cx="51.5" cy="419.5" r="5.5" stroke="#44C1BA" stroke-width="4"/>
<circle cx="80.5" cy="419.5" r="5.5" stroke="#44C1BA" stroke-width="4"/>
<circle cx="109.5" cy="419.5" r="5.5" stroke="#44C1BA" stroke-width="4"/>
<circle cx="-6.5" cy="454.5" r="5.5" stroke="#44C1BA" stroke-width="4"/>
<circle cx="22.5" cy="454.5" r="5.5" stroke="#44C1BA" stroke-width="4"/>
<circle cx="51.5" cy="454.5" r="5.5" stroke="#44C1BA" stroke-width="4"/>
<circle cx="80.5" cy="454.5" r="5.5" stroke="#44C1BA" stroke-width="4"/>
<circle cx="109.5" cy="454.5" r="5.5" stroke="#44C1BA" stroke-width="4"/>
<circle cx="-6.5" cy="489.5" r="5.5" stroke="#44C1BA" stroke-width="4"/>
<circle cx="22.5" cy="489.5" r="5.5" stroke="#44C1BA" stroke-width="4"/>
<circle cx="51.5" cy="489.5" r="5.5" stroke="#44C1BA" stroke-width="4"/>
<circle cx="80.5" cy="489.5" r="5.5" stroke="#44C1BA" stroke-width="4"/>
<circle cx="109.5" cy="489.5" r="5.5" stroke="#44C1BA" stroke-width="4"/>
<circle cx="341.5" cy="-0.5" r="5.5" stroke="#44C1BA" stroke-width="4"/>
<circle cx="370.5" cy="-0.5" r="5.5" stroke="#44C1BA" stroke-width="4"/>
<circle cx="399.5" cy="-0.5" r="5.5" stroke="#44C1BA" stroke-width="4"/>
<circle cx="428.5" cy="-0.5" r="5.5" stroke="#44C1BA" stroke-width="4"/>
<circle cx="457.5" cy="-0.5" r="5.5" stroke="#44C1BA" stroke-width="4"/>
<circle cx="486.5" cy="-0.5" r="5.5" stroke="#44C1BA" stroke-width="4"/>
<circle cx="341.5" cy="34.5" r="5.5" stroke="#44C1BA" stroke-width="4"/>
<circle cx="370.5" cy="34.5" r="5.5" stroke="#44C1BA" stroke-width="4"/>
<circle cx="399.5" cy="34.5" r="5.5" stroke="#44C1BA" stroke-width="4"/>
<circle cx="428.5" cy="34.5" r="5.5" stroke="#44C1BA" stroke-width="4"/>
<circle cx="457.5" cy="34.5" r="5.5" stroke="#44C1BA" stroke-width="4"/>
<circle cx="486.5" cy="34.5" r="5.5" stroke="#44C1BA" stroke-width="4"/>
<circle cx="341.5" cy="69.5" r="5.5" stroke="#44C1BA" stroke-width="4"/>
<circle cx="370.5" cy="69.5" r="5.5" stroke="#44C1BA" stroke-width="4"/>
<circle cx="399.5" cy="69.5" r="5.5" stroke="#44C1BA" stroke-width="4"/>
<circle cx="428.5" cy="69.5" r="5.5" stroke="#44C1BA" stroke-width="4"/>
<circle cx="457.5" cy="69.5" r="5.5" stroke="#44C1BA" stroke-width="4"/>
<circle cx="486.5" cy="69.5" r="5.5" stroke="#44C1BA" stroke-width="4"/>
<circle cx="341.5" cy="104.5" r="5.5" stroke="#44C1BA" stroke-width="4"/>
<circle cx="370.5" cy="104.5" r="5.5" stroke="#44C1BA" stroke-width="4"/>
<circle cx="399.5" cy="104.5" r="5.5" stroke="#44C1BA" stroke-width="4"/>
<circle cx="428.5" cy="104.5" r="5.5" stroke="#44C1BA" stroke-width="4"/>
<circle cx="457.5" cy="104.5" r="5.5" stroke="#44C1BA" stroke-width="4"/>
<circle cx="486.5" cy="104.5" r="5.5" stroke="#44C1BA" stroke-width="4"/>
<circle cx="341.5" cy="139.5" r="5.5" stroke="#44C1BA" stroke-width="4"/>
<circle cx="370.5" cy="139.5" r="5.5" stroke="#44C1BA" stroke-width="4"/>
<circle cx="399.5" cy="139.5" r="5.5" stroke="#44C1BA" stroke-width="4"/>
<circle cx="428.5" cy="139.5" r="5.5" stroke="#44C1BA" stroke-width="4"/>
<circle cx="457.5" cy="139.5" r="5.5" stroke="#44C1BA" stroke-width="4"/>
<circle cx="486.5" cy="139.5" r="5.5" stroke="#44C1BA" stroke-width="4"/>
<circle cx="341.5" cy="174.5" r="5.5" stroke="#44C1BA" stroke-width="4"/>
<circle cx="370.5" cy="174.5" r="5.5" stroke="#44C1BA" stroke-width="4"/>
<circle cx="399.5" cy="174.5" r="5.5" stroke="#44C1BA" stroke-width="4"/>
<circle cx="428.5" cy="174.5" r="5.5" stroke="#44C1BA" stroke-width="4"/>
<circle cx="457.5" cy="174.5" r="5.5" stroke="#44C1BA" stroke-width="4"/>
<circle cx="486.5" cy="174.5" r="5.5" stroke="#44C1BA" stroke-width="4"/>
<circle cx="341.5" cy="209.5" r="5.5" stroke="#44C1BA" stroke-width="4"/>
<circle cx="370.5" cy="209.5" r="5.5" stroke="#44C1BA" stroke-width="4"/>
<circle cx="399.5" cy="209.5" r="5.5" stroke="#44C1BA" stroke-width="4"/>
<circle cx="428.5" cy="209.5" r="5.5" stroke="#44C1BA" stroke-width="4"/>
<circle cx="457.5" cy="209.5" r="5.5" stroke="#44C1BA" stroke-width="4"/>
<circle cx="486.5" cy="209.5" r="5.5" stroke="#44C1BA" stroke-width="4"/>
<circle cx="341.5" cy="244.5" r="5.5" stroke="#44C1BA" stroke-width="4"/>
<circle cx="370.5" cy="244.5" r="5.5" stroke="#44C1BA" stroke-width="4"/>
<circle cx="399.5" cy="244.5" r="5.5" stroke="#44C1BA" stroke-width="4"/>
<circle cx="428.5" cy="244.5" r="5.5" stroke="#44C1BA" stroke-width="4"/>
<circle cx="457.5" cy="244.5" r="5.5" stroke="#44C1BA" stroke-width="4"/>
<circle cx="486.5" cy="244.5" r="5.5" stroke="#44C1BA" stroke-width="4"/>
<circle cx="341.5" cy="279.5" r="5.5" stroke="#44C1BA" stroke-width="4"/>
<circle cx="370.5" cy="279.5" r="5.5" stroke="#44C1BA" stroke-width="4"/>
<circle cx="399.5" cy="279.5" r="5.5" stroke="#44C1BA" stroke-width="4"/>
<circle cx="428.5" cy="279.5" r="5.5" stroke="#44C1BA" stroke-width="4"/>
<circle cx="457.5" cy="279.5" r="5.5" stroke="#44C1BA" stroke-width="4"/>
<circle cx="486.5" cy="279.5" r="5.5" stroke="#44C1BA" stroke-width="4"/>
<circle cx="341.5" cy="314.5" r="5.5" stroke="#44C1BA" stroke-width="4"/>
<circle cx="370.5" cy="314.5" r="5.5" stroke="#44C1BA" stroke-width="4"/>
<circle cx="399.5" cy="314.5" r="5.5" stroke="#44C1BA" stroke-width="4"/>
<circle cx="428.5" cy="314.5" r="5.5" stroke="#44C1BA" stroke-width="4"/>
<circle cx="457.5" cy="314.5" r="5.5" stroke="#44C1BA" stroke-width="4"/>
<circle cx="486.5" cy="314.5" r="5.5" stroke="#44C1BA" stroke-width="4"/>
<circle cx="341.5" cy="349.5" r="5.5" stroke="#44C1BA" stroke-width="4"/>
<circle cx="370.5" cy="349.5" r="5.5" stroke="#44C1BA" stroke-width="4"/>
<circle cx="399.5" cy="349.5" r="5.5" stroke="#44C1BA" stroke-width="4"/>
<circle cx="428.5" cy="349.5" r="5.5" stroke="#44C1BA" stroke-width="4"/>
<circle cx="457.5" cy="349.5" r="5.5" stroke="#44C1BA" stroke-width="4"/>
<circle cx="486.5" cy="349.5" r="5.5" stroke="#44C1BA" stroke-width="4"/>
<circle cx="341.5" cy="384.5" r="5.5" stroke="#44C1BA" stroke-width="4"/>
<circle cx="370.5" cy="384.5" r="5.5" stroke="#44C1BA" stroke-width="4"/>
<circle cx="399.5" cy="384.5" r="5.5" stroke="#44C1BA" stroke-width="4"/>
<circle cx="428.5" cy="384.5" r="5.5" stroke="#44C1BA" stroke-width="4"/>
<circle cx="457.5" cy="384.5" r="5.5" stroke="#44C1BA" stroke-width="4"/>
<circle cx="486.5" cy="384.5" r="5.5" stroke="#44C1BA" stroke-width="4"/>
<circle cx="341.5" cy="419.5" r="5.5" stroke="#44C1BA" stroke-width="4"/>
<circle cx="370.5" cy="419.5" r="5.5" stroke="#44C1BA" stroke-width="4"/>
<circle cx="399.5" cy="419.5" r="5.5" stroke="#44C1BA" stroke-width="4"/>
<circle cx="428.5" cy="419.5" r="5.5" stroke="#44C1BA" stroke-width="4"/>
<circle cx="457.5" cy="419.5" r="5.5" stroke="#44C1BA" stroke-width="4"/>
<circle cx="486.5" cy="419.5" r="5.5" stroke="#44C1BA" stroke-width="4"/>
<circle cx="341.5" cy="454.5" r="5.5" stroke="#44C1BA" stroke-width="4"/>
<circle cx="370.5" cy="454.5" r="5.5" stroke="#44C1BA" stroke-width="4"/>
<circle cx="399.5" cy="454.5" r="5.5" stroke="#44C1BA" stroke-width="4"/>
<circle cx="428.5" cy="454.5" r="5.5" stroke="#44C1BA" stroke-width="4"/>
<circle cx="457.5" cy="454.5" r="5.5" stroke="#44C1BA" stroke-width="4"/>
<circle cx="486.5" cy="454.5" r="5.5" stroke="#44C1BA" stroke-width="4"/>
<circle cx="341.5" cy="489.5" r="5.5" stroke="#44C1BA" stroke-width="4"/>
<circle cx="370.5" cy="489.5" r="5.5" stroke="#44C1BA" stroke-width="4"/>
<circle cx="399.5" cy="489.5" r="5.5" stroke="#44C1BA" stroke-width="4"/>
<circle cx="428.5" cy="489.5" r="5.5" stroke="#44C1BA" stroke-width="4"/>
<circle cx="457.5" cy="489.5" r="5.5" stroke="#44C1BA" stroke-width="4"/>
<circle cx="486.5" cy="489.5" r="5.5" stroke="#44C1BA" stroke-width="4"/>
</g>
</svg>
