<svg width="392" height="164" viewBox="0 0 392 164" fill="none" xmlns="http://www.w3.org/2000/svg">
<circle cx="13.5" cy="13.5" r="11.5" stroke="#44C1BA" stroke-width="4"/>
<circle cx="59.5" cy="13.5" r="11.5" stroke="#44C1BA" stroke-width="4"/>
<circle cx="104.5" cy="13.5" r="11.5" stroke="#44C1BA" stroke-width="4"/>
<circle cx="150.5" cy="13.5" r="11.5" stroke="#44C1BA" stroke-width="4"/>
<path d="M208 13.5C208 19.7833 202.697 25 196 25C189.303 25 184 19.7833 184 13.5C184 7.21666 189.303 2 196 2C202.697 2 208 7.21666 208 13.5Z" stroke="#44C1BA" stroke-width="4"/>
<circle cx="241.5" cy="13.5" r="11.5" stroke="#44C1BA" stroke-width="4"/>
<path d="M299 13.5C299 19.7833 293.697 25 287 25C280.303 25 275 19.7833 275 13.5C275 7.21666 280.303 2 287 2C293.697 2 299 7.21666 299 13.5Z" stroke="#44C1BA" stroke-width="4"/>
<circle cx="332.5" cy="13.5" r="11.5" stroke="#44C1BA" stroke-width="4"/>
<path d="M390 13.5C390 19.7833 384.697 25 378 25C371.303 25 366 19.7833 366 13.5C366 7.21666 371.303 2 378 2C384.697 2 390 7.21666 390 13.5Z" stroke="#44C1BA" stroke-width="4"/>
<circle cx="13.5" cy="59.5" r="11.5" stroke="#44C1BA" stroke-width="4"/>
<circle cx="59.5" cy="59.5" r="11.5" stroke="#44C1BA" stroke-width="4"/>
<circle cx="104.5" cy="59.5" r="11.5" stroke="#44C1BA" stroke-width="4"/>
<circle cx="150.5" cy="59.5" r="11.5" stroke="#44C1BA" stroke-width="4"/>
<path d="M208 59.5C208 65.7833 202.697 71 196 71C189.303 71 184 65.7833 184 59.5C184 53.2167 189.303 48 196 48C202.697 48 208 53.2167 208 59.5Z" stroke="#44C1BA" stroke-width="4"/>
<circle cx="241.5" cy="59.5" r="11.5" stroke="#44C1BA" stroke-width="4"/>
<path d="M299 59.5C299 65.7833 293.697 71 287 71C280.303 71 275 65.7833 275 59.5C275 53.2167 280.303 48 287 48C293.697 48 299 53.2167 299 59.5Z" stroke="#44C1BA" stroke-width="4"/>
<circle cx="332.5" cy="59.5" r="11.5" stroke="#44C1BA" stroke-width="4"/>
<path d="M390 59.5C390 65.7833 384.697 71 378 71C371.303 71 366 65.7833 366 59.5C366 53.2167 371.303 48 378 48C384.697 48 390 53.2167 390 59.5Z" stroke="#44C1BA" stroke-width="4"/>
<circle cx="13.5" cy="104.5" r="11.5" stroke="#44C1BA" stroke-width="4"/>
<circle cx="59.5" cy="104.5" r="11.5" stroke="#44C1BA" stroke-width="4"/>
<circle cx="104.5" cy="104.5" r="11.5" stroke="#44C1BA" stroke-width="4"/>
<circle cx="150.5" cy="104.5" r="11.5" stroke="#44C1BA" stroke-width="4"/>
<path d="M208 104.5C208 110.783 202.697 116 196 116C189.303 116 184 110.783 184 104.5C184 98.2167 189.303 93 196 93C202.697 93 208 98.2167 208 104.5Z" stroke="#44C1BA" stroke-width="4"/>
<circle cx="241.5" cy="104.5" r="11.5" stroke="#44C1BA" stroke-width="4"/>
<path d="M299 104.5C299 110.783 293.697 116 287 116C280.303 116 275 110.783 275 104.5C275 98.2167 280.303 93 287 93C293.697 93 299 98.2167 299 104.5Z" stroke="#44C1BA" stroke-width="4"/>
<circle cx="332.5" cy="104.5" r="11.5" stroke="#44C1BA" stroke-width="4"/>
<path d="M390 104.5C390 110.783 384.697 116 378 116C371.303 116 366 110.783 366 104.5C366 98.2167 371.303 93 378 93C384.697 93 390 98.2167 390 104.5Z" stroke="#44C1BA" stroke-width="4"/>
<circle cx="13.5" cy="150.5" r="11.5" stroke="#44C1BA" stroke-width="4"/>
<circle cx="59.5" cy="150.5" r="11.5" stroke="#44C1BA" stroke-width="4"/>
<circle cx="104.5" cy="150.5" r="11.5" stroke="#44C1BA" stroke-width="4"/>
<circle cx="150.5" cy="150.5" r="11.5" stroke="#44C1BA" stroke-width="4"/>
<path d="M208 150.5C208 156.783 202.697 162 196 162C189.303 162 184 156.783 184 150.5C184 144.217 189.303 139 196 139C202.697 139 208 144.217 208 150.5Z" stroke="#44C1BA" stroke-width="4"/>
<circle cx="241.5" cy="150.5" r="11.5" stroke="#44C1BA" stroke-width="4"/>
<path d="M299 150.5C299 156.783 293.697 162 287 162C280.303 162 275 156.783 275 150.5C275 144.217 280.303 139 287 139C293.697 139 299 144.217 299 150.5Z" stroke="#44C1BA" stroke-width="4"/>
<circle cx="332.5" cy="150.5" r="11.5" stroke="#44C1BA" stroke-width="4"/>
<path d="M390 150.5C390 156.783 384.697 162 378 162C371.303 162 366 156.783 366 150.5C366 144.217 371.303 139 378 139C384.697 139 390 144.217 390 150.5Z" stroke="#44C1BA" stroke-width="4"/>
</svg>
